<?xml version="1.0" encoding="utf-8"?>
<!-- Generator: Adobe Illustrator 16.0.4, SVG Export Plug-In . SVG Version: 6.00 Build 0)  -->
<!DOCTYPE svg PUBLIC "-//W3C//DTD SVG 1.1//EN" "http://www.w3.org/Graphics/SVG/1.1/DTD/svg11.dtd">
<svg version="1.1" id="Ebene_1" xmlns="http://www.w3.org/2000/svg" xmlns:xlink="http://www.w3.org/1999/xlink" x="0px" y="0px"
	 width="165px" height="45px" viewBox="0 0 165 45" enable-background="new 0 0 165 45" xml:space="preserve">
<circle fill="#1ABAFF" cx="22.476" cy="22.523" r="22.476"/>
<g>
	<path fill="#1ABAFF" d="M57.274,41.324c-0.36-0.125-0.608-0.316-0.741-0.58c-0.133-0.263-0.201-0.548-0.201-0.854
		c0-0.163,0.013-0.331,0.042-0.507c0.027-0.176,0.067-0.342,0.123-0.506c0.076-0.076,0.153-0.159,0.236-0.251
		c0.081-0.092,0.159-0.184,0.235-0.273c0.231-0.253,0.487-0.523,0.769-0.812c0.28-0.288,0.571-0.573,0.875-0.843
		c0.303-0.273,0.615-0.524,0.941-0.748c0.325-0.224,0.646-0.401,0.967-0.532c0.136-0.054,0.254-0.066,0.353-0.035
		c0.1,0.029,0.179,0.093,0.241,0.183c0.061,0.093,0.105,0.208,0.133,0.345c0.028,0.135,0.041,0.278,0.041,0.43
		c0,0.129-0.008,0.261-0.025,0.393c-0.017,0.133-0.04,0.261-0.071,0.38s-0.063,0.224-0.098,0.316
		c-0.034,0.09-0.073,0.162-0.113,0.209c-0.109,0.125-0.293,0.259-0.554,0.406c-0.259,0.147-0.545,0.302-0.86,0.467
		c-0.251,0.127-0.512,0.268-0.778,0.413c-0.267,0.146-0.506,0.29-0.721,0.434c-0.216,0.143-0.393,0.283-0.533,0.422
		c-0.14,0.135-0.21,0.259-0.21,0.369c0,0.088,0.072,0.178,0.215,0.267c0.034,0.007,0.072,0.01,0.113,0.01c0.041,0,0.078,0,0.113,0
		c0.212,0,0.443-0.017,0.696-0.058c0.252-0.035,0.512-0.085,0.777-0.147c0.267-0.062,0.534-0.128,0.8-0.204
		c0.267-0.076,0.518-0.146,0.758-0.216c0.169-0.048,0.348-0.093,0.538-0.138c0.186-0.043,0.338-0.081,0.454-0.116l0.37,0.295
		c-0.165,0.225-0.41,0.432-0.737,0.624c-0.326,0.191-0.688,0.356-1.079,0.497c-0.393,0.14-0.794,0.25-1.203,0.331
		c-0.411,0.082-0.779,0.125-1.106,0.125c-0.143,0-0.279-0.008-0.404-0.022C57.501,41.381,57.383,41.358,57.274,41.324z
		 M60.038,36.665c0.006,0.016-0.029,0.055-0.107,0.117c-0.079,0.066-0.18,0.147-0.306,0.246c-0.126,0.1-0.265,0.207-0.416,0.319
		c-0.149,0.112-0.296,0.22-0.439,0.322c-0.144,0.102-0.271,0.191-0.384,0.266c-0.113,0.076-0.19,0.125-0.231,0.146
		c0.104,0.005,0.226-0.012,0.368-0.053c0.145-0.04,0.295-0.095,0.453-0.164c0.156-0.069,0.312-0.148,0.465-0.239
		c0.153-0.093,0.291-0.187,0.414-0.28c0.125-0.096,0.223-0.19,0.296-0.28c0.077-0.093,0.114-0.178,0.114-0.252
		c0-0.014-0.037-0.03-0.114-0.051L60.038,36.665z"/>
	<path fill="#1ABAFF" d="M62.249,41.107c-0.013-0.022-0.025-0.053-0.036-0.097c-0.01-0.043-0.015-0.091-0.015-0.143
		c0-0.05,0.004-0.098,0.015-0.146c0.011-0.043,0.024-0.074,0.036-0.094c0.082-0.184,0.157-0.359,0.225-0.523
		c0.068-0.165,0.135-0.324,0.201-0.481c0.065-0.159,0.133-0.317,0.205-0.479c0.071-0.159,0.148-0.337,0.229-0.527h-0.849
		c-0.035,0-0.071-0.026-0.109-0.086c-0.036-0.06-0.071-0.128-0.101-0.211c-0.03-0.081-0.052-0.166-0.066-0.251
		c-0.014-0.085-0.011-0.156,0.01-0.209c0.048-0.008,0.109-0.025,0.183-0.058c0.076-0.029,0.152-0.062,0.232-0.091
		c0.079-0.031,0.149-0.061,0.215-0.088c0.065-0.025,0.107-0.046,0.128-0.061c0.027-0.008,0.093-0.026,0.195-0.062
		c0.102-0.034,0.212-0.072,0.332-0.112c0.119-0.041,0.226-0.08,0.322-0.119c0.096-0.037,0.15-0.064,0.164-0.076
		c0.076-0.063,0.18-0.228,0.316-0.491c0.137-0.267,0.29-0.569,0.461-0.91c0.129-0.273,0.27-0.564,0.423-0.871
		c0.154-0.307,0.315-0.61,0.487-0.911c0.17-0.301,0.349-0.587,0.537-0.86c0.188-0.271,0.384-0.511,0.588-0.715
		c0.205-0.205,0.417-0.372,0.64-0.492c0.222-0.123,0.448-0.184,0.68-0.184s0.463,0.067,0.696,0.193
		c0.231,0.13,0.467,0.347,0.705,0.646c0.076,0.095,0.131,0.209,0.165,0.337c0.034,0.129,0.034,0.269,0,0.419
		c-0.109,0.076-0.215,0.109-0.312,0.097c-0.1-0.009-0.189-0.035-0.271-0.08c-0.081-0.043-0.155-0.1-0.22-0.17
		c-0.064-0.069-0.114-0.13-0.149-0.185c-0.163-0.019-0.313-0.028-0.449-0.028c-0.293,0-0.541,0.049-0.738,0.144
		c-0.198,0.094-0.369,0.225-0.517,0.389c-0.146,0.161-0.275,0.356-0.383,0.58c-0.109,0.221-0.219,0.458-0.328,0.711
		c-0.061,0.135-0.127,0.279-0.195,0.432c-0.068,0.149-0.14,0.297-0.215,0.438c-0.053,0.095-0.119,0.215-0.195,0.357
		c-0.075,0.143-0.147,0.28-0.214,0.416c-0.069,0.132-0.153,0.294-0.256,0.485v0.123c0.007-0.053,0.043-0.082,0.113-0.089
		c0.069-0.002,0.15,0.004,0.246,0.02c0.15,0.021,0.316,0.044,0.496,0.071c0.181,0.027,0.359,0.064,0.533,0.114
		c0.175,0.045,0.336,0.109,0.487,0.183c0.149,0.075,0.266,0.171,0.349,0.286l-0.308,0.295c-0.169-0.013-0.342-0.022-0.511-0.026
		c-0.17-0.004-0.321-0.005-0.45-0.005c-0.266,0-0.495,0.021-0.686,0.058c-0.191,0.036-0.364,0.107-0.521,0.208
		c-0.158,0.104-0.302,0.245-0.436,0.431c-0.133,0.185-0.27,0.426-0.414,0.717c-0.061,0.135-0.147,0.314-0.257,0.532
		c-0.109,0.22-0.215,0.431-0.316,0.634c-0.102,0.206-0.194,0.383-0.275,0.535c-0.083,0.154-0.127,0.233-0.134,0.239l-0.225,0.236
		c-0.027-0.015-0.062-0.036-0.107-0.072c-0.045-0.033-0.09-0.071-0.137-0.109c-0.048-0.035-0.092-0.074-0.129-0.117
		C62.298,41.17,62.269,41.137,62.249,41.107z"/>
	<path fill="#1ABAFF" d="M68.256,41.107c-0.013-0.022-0.025-0.053-0.035-0.097c-0.01-0.043-0.016-0.091-0.016-0.143
		c0-0.05,0.006-0.098,0.016-0.146c0.01-0.043,0.023-0.074,0.035-0.094c0.083-0.184,0.157-0.359,0.227-0.523
		c0.067-0.165,0.134-0.324,0.199-0.481c0.065-0.159,0.134-0.317,0.205-0.479c0.07-0.159,0.148-0.337,0.229-0.527h-0.849
		c-0.035,0-0.071-0.026-0.109-0.086c-0.037-0.06-0.071-0.128-0.101-0.211c-0.031-0.081-0.052-0.166-0.068-0.251
		c-0.014-0.085-0.01-0.156,0.011-0.209c0.047-0.008,0.106-0.025,0.184-0.058c0.075-0.029,0.151-0.062,0.229-0.091
		c0.078-0.031,0.15-0.061,0.217-0.088c0.063-0.025,0.106-0.046,0.128-0.061c0.026-0.008,0.092-0.026,0.193-0.062
		c0.104-0.034,0.214-0.072,0.332-0.112c0.12-0.041,0.228-0.08,0.323-0.119c0.096-0.037,0.149-0.064,0.163-0.076
		c0.075-0.063,0.181-0.228,0.317-0.491c0.137-0.267,0.29-0.569,0.46-0.91c0.13-0.273,0.271-0.564,0.424-0.871
		c0.153-0.307,0.315-0.61,0.486-0.911s0.35-0.587,0.537-0.86c0.188-0.271,0.384-0.511,0.588-0.715
		c0.204-0.205,0.419-0.372,0.641-0.492c0.222-0.123,0.448-0.184,0.681-0.184c0.231,0,0.463,0.067,0.696,0.193
		c0.231,0.13,0.467,0.347,0.705,0.646c0.075,0.095,0.13,0.209,0.163,0.337c0.033,0.129,0.033,0.269,0,0.419
		c-0.108,0.076-0.214,0.109-0.312,0.097c-0.098-0.009-0.188-0.035-0.27-0.08c-0.082-0.043-0.155-0.1-0.222-0.17
		c-0.063-0.069-0.113-0.13-0.148-0.185c-0.162-0.019-0.313-0.028-0.449-0.028c-0.294,0-0.539,0.049-0.736,0.144
		c-0.198,0.094-0.37,0.225-0.517,0.389c-0.147,0.161-0.275,0.356-0.385,0.58c-0.109,0.221-0.219,0.458-0.328,0.711
		c-0.06,0.135-0.127,0.279-0.194,0.432c-0.068,0.149-0.14,0.297-0.215,0.438c-0.055,0.095-0.119,0.215-0.193,0.357
		c-0.077,0.143-0.147,0.28-0.217,0.416c-0.067,0.132-0.151,0.294-0.255,0.485v0.123c0.007-0.053,0.043-0.082,0.113-0.089
		c0.067-0.002,0.149,0.004,0.245,0.02c0.151,0.021,0.316,0.044,0.496,0.071c0.182,0.027,0.359,0.064,0.533,0.114
		c0.175,0.045,0.335,0.109,0.487,0.183c0.148,0.075,0.265,0.171,0.349,0.286l-0.308,0.295c-0.171-0.013-0.342-0.022-0.513-0.026
		c-0.17-0.004-0.32-0.005-0.45-0.005c-0.266,0-0.494,0.021-0.685,0.058c-0.192,0.036-0.366,0.107-0.521,0.208
		c-0.159,0.104-0.302,0.245-0.437,0.431c-0.132,0.185-0.271,0.426-0.413,0.717c-0.061,0.135-0.147,0.314-0.257,0.532
		c-0.109,0.22-0.214,0.431-0.317,0.634c-0.103,0.206-0.194,0.383-0.276,0.535c-0.081,0.154-0.126,0.233-0.133,0.239l-0.225,0.236
		c-0.028-0.015-0.064-0.036-0.108-0.072c-0.045-0.033-0.091-0.071-0.137-0.109c-0.049-0.035-0.092-0.074-0.129-0.117
		C68.304,41.165,68.278,41.137,68.256,41.107z"/>
	<path fill="#1ABAFF" d="M74.859,41.324c-0.361-0.125-0.608-0.316-0.742-0.58c-0.133-0.263-0.199-0.548-0.199-0.854
		c0-0.163,0.013-0.331,0.041-0.507c0.025-0.176,0.068-0.342,0.121-0.506c0.077-0.076,0.155-0.159,0.236-0.251
		c0.083-0.092,0.161-0.184,0.236-0.273c0.232-0.253,0.486-0.523,0.768-0.812c0.279-0.288,0.572-0.573,0.875-0.843
		c0.304-0.273,0.617-0.524,0.941-0.748c0.326-0.224,0.646-0.401,0.968-0.532c0.135-0.054,0.253-0.066,0.354-0.035
		c0.1,0.029,0.179,0.093,0.24,0.183c0.062,0.093,0.105,0.208,0.133,0.345c0.027,0.135,0.041,0.278,0.041,0.43
		c0,0.129-0.01,0.261-0.025,0.393c-0.017,0.133-0.04,0.261-0.073,0.38c-0.029,0.119-0.062,0.224-0.098,0.316
		c-0.032,0.09-0.071,0.162-0.111,0.209c-0.109,0.125-0.293,0.259-0.554,0.406c-0.259,0.147-0.545,0.302-0.86,0.467
		c-0.253,0.127-0.512,0.268-0.778,0.413c-0.266,0.146-0.507,0.29-0.721,0.434c-0.216,0.143-0.392,0.283-0.532,0.422
		c-0.14,0.135-0.209,0.259-0.209,0.369c0,0.088,0.071,0.178,0.214,0.267c0.034,0.007,0.072,0.01,0.113,0.01s0.079,0,0.113,0
		c0.209,0,0.443-0.017,0.695-0.058c0.253-0.035,0.512-0.085,0.777-0.147c0.267-0.062,0.533-0.128,0.8-0.204
		c0.265-0.076,0.518-0.146,0.758-0.216c0.169-0.048,0.35-0.093,0.536-0.138c0.188-0.043,0.341-0.081,0.456-0.116l0.37,0.295
		c-0.164,0.225-0.41,0.432-0.737,0.624c-0.326,0.195-0.688,0.356-1.079,0.497c-0.393,0.14-0.794,0.25-1.203,0.331
		c-0.409,0.082-0.778,0.125-1.105,0.125c-0.144,0-0.277-0.008-0.403-0.022C75.086,41.381,74.968,41.358,74.859,41.324z
		 M77.623,36.665c0.006,0.016-0.029,0.055-0.108,0.117c-0.077,0.066-0.181,0.147-0.306,0.246c-0.128,0.1-0.266,0.207-0.416,0.319
		c-0.149,0.112-0.297,0.22-0.438,0.322c-0.144,0.102-0.271,0.191-0.385,0.266c-0.113,0.076-0.188,0.125-0.23,0.146
		c0.102,0.005,0.226-0.012,0.368-0.053c0.144-0.04,0.293-0.095,0.451-0.164s0.312-0.148,0.465-0.239
		c0.154-0.093,0.292-0.187,0.415-0.28c0.124-0.096,0.222-0.19,0.296-0.28c0.076-0.093,0.114-0.178,0.114-0.252
		c0-0.014-0.038-0.03-0.114-0.051L77.623,36.665z"/>
	<path fill="#1ABAFF" d="M80.651,41.324c-0.389-0.131-0.665-0.322-0.829-0.574c-0.163-0.253-0.246-0.54-0.246-0.86
		c0-0.308,0.07-0.638,0.205-0.986c0.136-0.353,0.315-0.701,0.536-1.048c0.223-0.349,0.473-0.685,0.748-1.009
		c0.276-0.327,0.559-0.609,0.845-0.859c0.286-0.248,0.564-0.446,0.834-0.594c0.27-0.145,0.503-0.22,0.7-0.22
		c0.184,0,0.337,0.053,0.461,0.158c0.124,0.106,0.205,0.275,0.244,0.507c0.027,0.179-0.003,0.37-0.092,0.579
		c-0.088,0.209-0.204,0.401-0.347,0.581c-0.146,0.177-0.297,0.326-0.456,0.447c-0.159,0.126-0.302,0.184-0.427,0.184
		c-0.094,0-0.18-0.035-0.259-0.107c-0.078-0.072-0.132-0.185-0.158-0.342c0.097-0.197,0.195-0.361,0.301-0.483
		c0.106-0.128,0.206-0.256,0.304-0.384c-0.082-0.015-0.2,0.03-0.354,0.137c-0.153,0.107-0.321,0.255-0.508,0.445
		c-0.184,0.191-0.372,0.412-0.563,0.66c-0.189,0.248-0.364,0.506-0.521,0.772c-0.157,0.266-0.284,0.533-0.384,0.795
		s-0.147,0.496-0.147,0.71c0,0.118,0.019,0.223,0.056,0.319c0.036,0.094,0.1,0.178,0.188,0.255c0.225,0.014,0.481-0.011,0.768-0.073
		c0.287-0.062,0.586-0.141,0.901-0.239c0.314-0.1,0.628-0.212,0.941-0.334c0.315-0.121,0.613-0.239,0.901-0.356h-0.012
		c0.396-0.157,0.742-0.285,1.037-0.389c0.292-0.104,0.5-0.127,0.625-0.072c0.143,0.088,0.169,0.209,0.074,0.363
		c-0.091,0.152-0.266,0.324-0.523,0.506c-0.257,0.184-0.567,0.373-0.937,0.559c-0.37,0.188-0.758,0.356-1.164,0.514
		c-0.406,0.151-0.804,0.277-1.195,0.374c-0.393,0.095-0.742,0.143-1.05,0.143C80.963,41.395,80.794,41.371,80.651,41.324z"/>
	<path fill="#1ABAFF" d="M87.541,41.21c-0.021-0.055-0.028-0.133-0.026-0.235c0.005-0.102,0.021-0.17,0.048-0.204
		c0.013-0.04,0.024-0.075,0.028-0.103c0.04-0.128,0.093-0.302,0.154-0.521c0.062-0.219,0.124-0.436,0.183-0.655
		c0.062-0.219,0.119-0.423,0.176-0.609c0.053-0.188,0.096-0.322,0.124-0.405c0.005-0.014,0.008-0.023,0.005-0.03
		c-0.005-0.007-0.003-0.017,0.006-0.028c0.014-0.076,0.034-0.149,0.066-0.226c0.031-0.076,0.045-0.154,0.045-0.235
		c-0.127,0.015-0.252,0.033-0.368,0.062c-0.11,0.027-0.222,0.051-0.331,0.073c-0.113,0.021-0.23,0.028-0.352,0.028
		c-0.158,0-0.297-0.035-0.422-0.106c-0.123-0.074-0.225-0.201-0.307-0.385c0.062-0.15,0.139-0.271,0.236-0.356
		c0.095-0.09,0.199-0.159,0.312-0.205c0.112-0.05,0.23-0.082,0.352-0.104c0.124-0.019,0.249-0.035,0.38-0.05
		c0.19-0.021,0.368-0.05,0.537-0.085c0.166-0.036,0.295-0.117,0.383-0.23c0.039-0.109,0.084-0.23,0.132-0.37
		c0.047-0.134,0.095-0.279,0.141-0.438c0.07-0.211,0.146-0.439,0.23-0.682c0.086-0.241,0.174-0.483,0.267-0.727
		c0.09-0.242,0.188-0.482,0.292-0.716c0.1-0.237,0.212-0.453,0.328-0.65c0.143-0.098,0.263-0.114,0.357-0.053
		c0.097,0.062,0.174,0.152,0.229,0.272c0.06,0.12,0.095,0.246,0.114,0.379c0.018,0.134,0.022,0.221,0.015,0.261h0.01
		c-0.029,0.143-0.087,0.3-0.166,0.472c-0.08,0.172-0.16,0.344-0.242,0.523c-0.109,0.238-0.209,0.48-0.307,0.728
		c-0.096,0.245-0.143,0.478-0.143,0.695c0,0.054-0.005,0.077-0.01,0.072c-0.007-0.007-0.005,0.015,0.01,0.062h2.416
		c0.075,0,0.137,0.038,0.187,0.114c0.053,0.076,0.093,0.138,0.127,0.192c0.063,0.138,0.07,0.246,0.025,0.324
		c-0.05,0.077-0.133,0.135-0.259,0.175c-0.123,0.038-0.274,0.062-0.447,0.074c-0.178,0.012-0.374,0.019-0.576,0.025
		c-0.195,0.008-0.406,0.015-0.62,0.025c-0.217,0.011-0.413,0.032-0.599,0.065c-0.182,0.034-0.343,0.085-0.48,0.149
		c-0.137,0.064-0.229,0.152-0.278,0.262c-0.212,0.538-0.406,1.078-0.582,1.615c-0.181,0.541-0.347,1.084-0.504,1.63
		c-0.028,0.045-0.081,0.113-0.157,0.192c-0.078,0.081-0.166,0.146-0.256,0.189c-0.093,0.042-0.186,0.056-0.279,0.03
		s-0.158-0.122-0.208-0.286v0.005H87.541z"/>
	<path fill="#1ABAFF" d="M92.024,41.086c0.229-0.742,0.451-1.38,0.665-1.911c0.211-0.533,0.406-0.969,0.587-1.311
		c0.18-0.342,0.339-0.591,0.478-0.75c0.136-0.163,0.244-0.24,0.328-0.24c0.102,0,0.164,0.108,0.183,0.328
		c0.021,0.218-0.019,0.527-0.119,0.926c-0.097,0.399-0.259,0.882-0.484,1.443c-0.226,0.564-0.532,1.188-0.92,1.869
		c-0.118,0.048-0.249,0.057-0.394,0.028c-0.147-0.024-0.252-0.108-0.314-0.244L92.024,41.086z M94.122,35.438
		c-0.007-0.023-0.012-0.062-0.015-0.118c-0.004-0.06-0.002-0.121,0.005-0.184c0.005-0.066,0.015-0.127,0.024-0.184
		c0.009-0.061,0.023-0.102,0.035-0.127c0.095-0.033,0.174-0.059,0.235-0.073c0.06-0.015,0.116-0.022,0.164-0.022
		c0.197,0,0.335,0.055,0.42,0.164c0.081,0.11,0.124,0.24,0.124,0.39c0,0.157-0.045,0.303-0.137,0.441
		c-0.093,0.132-0.208,0.203-0.342,0.203c-0.098,0-0.187-0.034-0.274-0.104c-0.085-0.068-0.167-0.189-0.239-0.37L94.122,35.438
		L94.122,35.438z"/>
	<path fill="#1ABAFF" d="M95.964,41.159c-0.219-0.128-0.369-0.324-0.449-0.58c-0.08-0.255-0.124-0.538-0.124-0.853
		c0-0.212,0.017-0.434,0.048-0.667c0.03-0.232,0.066-0.458,0.106-0.682c0.041-0.223,0.086-0.433,0.134-0.633
		c0.047-0.202,0.088-0.38,0.123-0.529l-0.012,0.012c0.015-0.068,0.028-0.144,0.052-0.227c0.02-0.082,0.038-0.142,0.051-0.185
		c0.097-0.055,0.188-0.067,0.277-0.04c0.088,0.026,0.171,0.07,0.245,0.125c0.083,0.067,0.164,0.149,0.244,0.244
		c0.008,0.075,0.013,0.158,0.013,0.245s0,0.169,0,0.234c0,0.22-0.01,0.429-0.026,0.626c-0.02,0.198-0.032,0.396-0.047,0.593
		c-0.024,0.204-0.047,0.413-0.065,0.62c-0.019,0.208-0.024,0.414-0.024,0.621v0.295c0.048,0.022,0.161-0.042,0.341-0.188
		c0.181-0.146,0.396-0.341,0.651-0.588c0.252-0.244,0.526-0.522,0.817-0.83c0.294-0.307,0.583-0.61,0.859-0.91
		c0.238-0.253,0.477-0.5,0.713-0.74c0.233-0.243,0.454-0.461,0.662-0.65c0.204-0.19,0.384-0.343,0.545-0.464
		c0.159-0.114,0.283-0.172,0.374-0.172c0.142,0,0.231,0.061,0.267,0.183c0.035,0.124,0.006,0.329-0.092,0.615
		c-0.183,0.158-0.38,0.364-0.592,0.619c-0.211,0.256-0.437,0.537-0.677,0.844c-0.279,0.355-0.579,0.725-0.889,1.104
		c-0.313,0.382-0.637,0.733-0.962,1.049c-0.328,0.317-0.653,0.579-0.977,0.784c-0.329,0.204-0.64,0.307-0.948,0.307
		C96.367,41.343,96.156,41.281,95.964,41.159z"/>
	<path fill="#1ABAFF" d="M103.12,41.324c-0.364-0.125-0.608-0.316-0.74-0.58c-0.132-0.263-0.2-0.548-0.2-0.854
		c0-0.163,0.015-0.331,0.039-0.507c0.026-0.176,0.07-0.342,0.125-0.506c0.075-0.076,0.152-0.159,0.235-0.251
		c0.08-0.092,0.159-0.184,0.231-0.273c0.233-0.253,0.489-0.523,0.771-0.812c0.278-0.288,0.573-0.573,0.875-0.843
		c0.304-0.273,0.618-0.524,0.939-0.748c0.327-0.223,0.646-0.401,0.968-0.532c0.138-0.054,0.256-0.066,0.354-0.035
		c0.1,0.029,0.181,0.093,0.24,0.183c0.062,0.093,0.106,0.208,0.133,0.345c0.026,0.135,0.04,0.278,0.04,0.43
		c0,0.129-0.009,0.261-0.025,0.393c-0.017,0.133-0.041,0.261-0.071,0.38c-0.032,0.116-0.064,0.224-0.098,0.316
		c-0.033,0.09-0.074,0.162-0.111,0.209c-0.112,0.125-0.295,0.259-0.554,0.406c-0.262,0.147-0.547,0.302-0.86,0.467
		c-0.252,0.127-0.511,0.268-0.779,0.413c-0.268,0.146-0.506,0.29-0.721,0.434c-0.218,0.143-0.394,0.283-0.534,0.422
		c-0.14,0.135-0.211,0.259-0.211,0.369c0,0.088,0.074,0.178,0.216,0.267c0.033,0.007,0.072,0.01,0.113,0.01s0.077,0,0.113,0
		c0.213,0,0.445-0.017,0.696-0.058c0.252-0.035,0.511-0.085,0.777-0.147c0.27-0.062,0.533-0.128,0.798-0.204
		c0.267-0.076,0.519-0.146,0.758-0.216c0.172-0.048,0.349-0.093,0.536-0.138c0.188-0.043,0.34-0.081,0.456-0.116l0.368,0.295
		c-0.163,0.225-0.408,0.432-0.735,0.624c-0.329,0.191-0.686,0.356-1.081,0.497c-0.392,0.14-0.79,0.25-1.202,0.331
		c-0.408,0.082-0.776,0.125-1.104,0.125c-0.143,0-0.279-0.008-0.403-0.022C103.346,41.381,103.229,41.358,103.12,41.324z
		 M105.883,36.665c0.007,0.016-0.031,0.055-0.109,0.117c-0.078,0.066-0.181,0.147-0.307,0.246c-0.126,0.1-0.264,0.207-0.413,0.319
		s-0.297,0.22-0.439,0.322c-0.146,0.102-0.273,0.191-0.385,0.266c-0.112,0.076-0.188,0.125-0.229,0.146
		c0.103,0.005,0.224-0.012,0.368-0.053c0.143-0.04,0.293-0.095,0.449-0.164c0.159-0.069,0.313-0.148,0.466-0.239
		c0.154-0.093,0.292-0.187,0.416-0.28c0.124-0.096,0.221-0.19,0.297-0.28c0.076-0.093,0.111-0.178,0.111-0.252
		c0-0.014-0.034-0.03-0.111-0.051L105.883,36.665z"/>
	<path fill="#1ABAFF" d="M120.613,41.384c-0.072,0.04-0.145,0.047-0.23,0.022c-0.085-0.027-0.168-0.07-0.244-0.125
		c-0.079-0.055-0.147-0.111-0.205-0.169c-0.059-0.06-0.092-0.095-0.1-0.107l0.031,0.102c-0.066-0.082-0.114-0.177-0.143-0.281
		c-0.026-0.104-0.04-0.214-0.04-0.322c0-0.191,0.033-0.379,0.1-0.569c0.071-0.185,0.143-0.353,0.219-0.496
		c0.038-0.081,0.108-0.227,0.204-0.43c0.093-0.207,0.199-0.421,0.312-0.646c0.112-0.227,0.22-0.436,0.319-0.638
		c0.1-0.2,0.175-0.342,0.222-0.426v-0.051c-0.124,0.032-0.312,0.139-0.558,0.317c-0.25,0.178-0.529,0.395-0.836,0.654
		c-0.309,0.261-0.631,0.538-0.962,0.839c-0.334,0.298-0.646,0.583-0.933,0.854s-0.536,0.506-0.748,0.712
		c-0.212,0.202-0.346,0.34-0.409,0.409c-0.254,0.088-0.43,0.073-0.527-0.045c-0.1-0.121-0.149-0.312-0.149-0.57
		c0-0.164,0.021-0.354,0.06-0.573c0.035-0.218,0.083-0.439,0.14-0.665c0.058-0.228,0.119-0.444,0.179-0.655
		c0.062-0.212,0.116-0.395,0.164-0.552c0.014-0.027,0.025-0.062,0.03-0.1c0.008-0.035,0.017-0.062,0.03-0.075
		c-0.124,0.021-0.257,0.085-0.394,0.197c-0.138,0.115-0.285,0.257-0.435,0.427c-0.15,0.174-0.302,0.361-0.454,0.57
		c-0.154,0.207-0.307,0.418-0.456,0.631c-0.152,0.21-0.3,0.415-0.446,0.608c-0.146,0.191-0.285,0.367-0.424,0.518
		c-0.138,0.149-0.271,0.27-0.398,0.357c-0.131,0.09-0.257,0.132-0.381,0.132c-0.176,0-0.333-0.099-0.47-0.296
		c-0.015-0.034-0.02-0.083-0.017-0.148c0.002-0.064,0.012-0.115,0.025-0.148c0.04-0.08,0.101-0.207,0.183-0.38
		c0.079-0.172,0.177-0.363,0.278-0.58c0.107-0.212,0.219-0.437,0.338-0.67c0.121-0.23,0.232-0.455,0.342-0.672
		c0.109-0.214,0.207-0.404,0.293-0.573c0.081-0.167,0.149-0.292,0.188-0.374v0.01c0.039-0.087,0.106-0.202,0.193-0.341
		c0.09-0.141,0.18-0.273,0.274-0.401c0.09-0.125,0.174-0.231,0.242-0.327c0.074-0.093,0.114-0.137,0.121-0.137h0.409
		c0.055,0.143,0.083,0.276,0.088,0.398c0.002,0.122-0.014,0.237-0.041,0.343c-0.033,0.106-0.076,0.203-0.13,0.298
		c-0.053,0.088-0.107,0.178-0.162,0.26c-0.035,0.062-0.071,0.122-0.109,0.177c-0.035,0.06-0.068,0.116-0.098,0.171
		c0.331-0.286,0.616-0.532,0.863-0.731c0.242-0.202,0.456-0.367,0.639-0.492c0.177-0.127,0.328-0.218,0.44-0.272
		c0.12-0.055,0.216-0.08,0.288-0.08c0.116,0,0.198,0.025,0.252,0.08c0.05,0.055,0.077,0.132,0.084,0.234
		c0.007,0.104-0.002,0.224-0.029,0.364c-0.025,0.14-0.061,0.292-0.101,0.455l0.01-0.01c-0.047,0.218-0.098,0.449-0.144,0.695
		c-0.045,0.244-0.072,0.485-0.072,0.728v0.175c0.068-0.055,0.142-0.116,0.221-0.177c0.077-0.068,0.163-0.132,0.249-0.201
		c0.139-0.101,0.266-0.197,0.38-0.285c0.117-0.088,0.194-0.149,0.234-0.183c0.103-0.076,0.238-0.179,0.404-0.309
		c0.169-0.128,0.337-0.26,0.513-0.388c0.174-0.128,0.33-0.246,0.466-0.348c0.136-0.103,0.228-0.163,0.268-0.185h-0.022
		c0.033-0.026,0.109-0.077,0.221-0.157c0.113-0.077,0.235-0.163,0.37-0.251c0.134-0.087,0.261-0.174,0.384-0.252
		c0.122-0.075,0.209-0.129,0.265-0.157l-0.011,0.01c0.149-0.088,0.295-0.131,0.431-0.131c0.178,0,0.322,0.063,0.427,0.188
		c0.107,0.126,0.159,0.288,0.159,0.485c0,0.055-0.007,0.113-0.022,0.176c-0.015,0.062-0.025,0.128-0.037,0.203
		c-0.065,0.118-0.127,0.228-0.186,0.338c-0.062,0.107-0.118,0.219-0.176,0.328c-0.165,0.292-0.319,0.582-0.467,0.866
		c-0.146,0.281-0.279,0.573-0.391,0.869c-0.117,0.297-0.213,0.607-0.282,0.926C120.659,40.682,120.618,41.022,120.613,41.384z"/>
	<path fill="#1ABAFF" d="M124.021,41.324c-0.361-0.125-0.608-0.316-0.741-0.58c-0.131-0.263-0.199-0.548-0.199-0.854
		c0-0.163,0.014-0.331,0.04-0.507c0.028-0.176,0.069-0.342,0.124-0.506c0.075-0.076,0.154-0.159,0.234-0.251
		c0.081-0.092,0.159-0.184,0.235-0.273c0.23-0.253,0.487-0.523,0.768-0.812c0.283-0.288,0.57-0.573,0.877-0.843
		c0.302-0.273,0.615-0.524,0.94-0.748c0.323-0.223,0.646-0.401,0.968-0.532c0.135-0.054,0.254-0.066,0.352-0.035
		c0.1,0.029,0.178,0.093,0.242,0.183c0.06,0.093,0.104,0.208,0.129,0.345c0.027,0.135,0.041,0.278,0.041,0.43
		c0,0.129-0.008,0.261-0.025,0.393c-0.019,0.133-0.043,0.261-0.073,0.38c-0.028,0.119-0.064,0.224-0.098,0.316
		c-0.033,0.09-0.071,0.162-0.111,0.209c-0.109,0.125-0.295,0.259-0.554,0.406s-0.547,0.302-0.86,0.467
		c-0.252,0.127-0.511,0.268-0.777,0.413c-0.268,0.146-0.506,0.29-0.722,0.434c-0.218,0.143-0.393,0.283-0.533,0.422
		c-0.141,0.135-0.211,0.259-0.211,0.369c0,0.088,0.073,0.178,0.216,0.267c0.034,0.007,0.074,0.01,0.113,0.01
		c0.041,0,0.077,0,0.115,0c0.209,0,0.441-0.017,0.693-0.058c0.251-0.035,0.514-0.085,0.78-0.147
		c0.266-0.062,0.532-0.128,0.795-0.204c0.27-0.076,0.521-0.146,0.758-0.216c0.175-0.048,0.352-0.093,0.539-0.138
		c0.185-0.043,0.336-0.081,0.452-0.116l0.37,0.295c-0.164,0.225-0.409,0.432-0.735,0.624c-0.329,0.191-0.687,0.356-1.08,0.497
		c-0.394,0.14-0.792,0.25-1.201,0.331c-0.411,0.082-0.78,0.125-1.104,0.125c-0.146,0-0.28-0.008-0.406-0.022
		C124.249,41.381,124.13,41.358,124.021,41.324z M126.784,36.665c0.009,0.016-0.025,0.055-0.107,0.117
		c-0.078,0.066-0.178,0.147-0.307,0.246c-0.126,0.1-0.266,0.207-0.415,0.319c-0.15,0.112-0.298,0.22-0.439,0.322
		c-0.143,0.102-0.271,0.191-0.382,0.266c-0.115,0.076-0.19,0.125-0.229,0.146c0.103,0.005,0.226-0.012,0.368-0.053
		c0.146-0.04,0.295-0.095,0.452-0.164c0.156-0.069,0.313-0.148,0.465-0.239c0.155-0.093,0.29-0.187,0.416-0.28
		c0.124-0.096,0.221-0.19,0.297-0.28c0.074-0.093,0.112-0.178,0.112-0.252c0-0.014-0.036-0.03-0.112-0.051L126.784,36.665z"/>
	<path fill="#1ABAFF" d="M129.59,41.324c-0.361-0.125-0.61-0.316-0.744-0.58c-0.13-0.263-0.199-0.548-0.199-0.854
		c0-0.163,0.015-0.331,0.043-0.507c0.026-0.176,0.066-0.342,0.121-0.506c0.076-0.076,0.154-0.159,0.235-0.251
		c0.083-0.092,0.161-0.184,0.235-0.273c0.229-0.253,0.485-0.523,0.768-0.812c0.28-0.288,0.572-0.573,0.876-0.843
		c0.305-0.273,0.618-0.524,0.941-0.748c0.325-0.224,0.646-0.401,0.969-0.532c0.134-0.054,0.252-0.066,0.352-0.035
		c0.101,0.029,0.178,0.093,0.24,0.183c0.062,0.093,0.107,0.208,0.13,0.345c0.027,0.135,0.043,0.278,0.043,0.43
		c0,0.129-0.011,0.261-0.025,0.393c-0.021,0.133-0.04,0.261-0.072,0.38c-0.032,0.116-0.065,0.224-0.098,0.316
		c-0.034,0.09-0.075,0.162-0.115,0.209c-0.109,0.125-0.291,0.259-0.553,0.406c-0.26,0.147-0.544,0.302-0.857,0.467
		c-0.254,0.127-0.515,0.268-0.78,0.413c-0.267,0.146-0.506,0.29-0.723,0.434c-0.216,0.143-0.392,0.283-0.532,0.422
		c-0.14,0.135-0.209,0.259-0.209,0.369c0,0.088,0.071,0.178,0.214,0.267c0.036,0.007,0.074,0.01,0.114,0.01s0.078,0,0.111,0
		c0.214,0,0.444-0.017,0.696-0.058c0.252-0.035,0.514-0.085,0.779-0.147c0.267-0.062,0.533-0.128,0.796-0.204
		c0.267-0.076,0.521-0.146,0.758-0.216c0.171-0.048,0.35-0.093,0.537-0.138c0.188-0.043,0.34-0.081,0.456-0.116l0.368,0.295
		c-0.164,0.225-0.408,0.432-0.736,0.624c-0.328,0.191-0.686,0.356-1.078,0.497c-0.395,0.14-0.794,0.25-1.205,0.331
		c-0.408,0.082-0.777,0.125-1.104,0.125c-0.143,0-0.278-0.008-0.404-0.022C129.815,41.381,129.699,41.358,129.59,41.324z
		 M132.354,36.665c0.007,0.016-0.029,0.055-0.107,0.117c-0.078,0.066-0.181,0.147-0.309,0.246c-0.126,0.1-0.264,0.207-0.414,0.319
		c-0.149,0.112-0.297,0.22-0.439,0.322c-0.145,0.102-0.271,0.191-0.382,0.266c-0.114,0.076-0.189,0.125-0.229,0.146
		c0.102,0.005,0.227-0.012,0.369-0.053c0.142-0.04,0.291-0.095,0.451-0.164c0.154-0.069,0.312-0.148,0.464-0.239
		c0.154-0.093,0.291-0.187,0.416-0.28c0.123-0.096,0.223-0.19,0.297-0.28c0.074-0.093,0.114-0.178,0.114-0.252
		c0-0.014-0.038-0.03-0.114-0.051L132.354,36.665z"/>
	<path fill="#1ABAFF" d="M135.116,41.21c-0.021-0.055-0.028-0.133-0.026-0.235c0.003-0.102,0.02-0.17,0.045-0.204
		c0.015-0.04,0.026-0.075,0.031-0.103c0.04-0.128,0.093-0.302,0.154-0.521c0.062-0.219,0.121-0.436,0.184-0.655
		c0.059-0.219,0.118-0.423,0.176-0.609c0.052-0.188,0.092-0.322,0.121-0.405c0.007-0.014,0.009-0.023,0.005-0.03
		c-0.003-0.004,0-0.017,0.004-0.028c0.017-0.076,0.036-0.149,0.07-0.226c0.03-0.076,0.044-0.154,0.044-0.235
		c-0.127,0.015-0.252,0.033-0.37,0.062c-0.107,0.027-0.219,0.051-0.329,0.073c-0.113,0.021-0.229,0.028-0.352,0.028
		c-0.157,0-0.297-0.035-0.422-0.106c-0.124-0.074-0.226-0.201-0.307-0.385c0.062-0.15,0.138-0.271,0.232-0.356
		c0.096-0.09,0.2-0.159,0.314-0.205c0.113-0.05,0.229-0.082,0.354-0.104c0.125-0.019,0.247-0.035,0.379-0.05
		c0.191-0.021,0.371-0.05,0.536-0.085c0.168-0.036,0.294-0.117,0.385-0.23c0.04-0.109,0.083-0.23,0.131-0.37
		c0.047-0.134,0.095-0.279,0.143-0.438c0.068-0.211,0.144-0.439,0.229-0.682c0.085-0.241,0.175-0.483,0.267-0.727
		c0.093-0.242,0.189-0.482,0.292-0.716c0.103-0.237,0.212-0.453,0.329-0.65c0.142-0.098,0.264-0.114,0.356-0.053
		c0.098,0.062,0.176,0.152,0.231,0.272c0.058,0.12,0.096,0.246,0.112,0.379c0.02,0.133,0.024,0.221,0.015,0.261h0.013
		c-0.034,0.143-0.091,0.3-0.169,0.472c-0.08,0.172-0.159,0.344-0.24,0.523c-0.111,0.238-0.214,0.48-0.307,0.728
		c-0.098,0.245-0.145,0.478-0.145,0.695c0,0.054-0.003,0.077-0.01,0.072s-0.005,0.015,0.01,0.062h2.416
		c0.075,0,0.135,0.038,0.187,0.114c0.053,0.076,0.095,0.138,0.127,0.192c0.063,0.138,0.07,0.246,0.022,0.324
		c-0.05,0.077-0.134,0.135-0.256,0.175c-0.127,0.038-0.274,0.062-0.449,0.074c-0.177,0.012-0.368,0.019-0.575,0.025
		c-0.197,0.008-0.404,0.015-0.621,0.025s-0.416,0.032-0.599,0.065c-0.182,0.034-0.341,0.085-0.48,0.149
		c-0.135,0.064-0.23,0.152-0.276,0.262c-0.213,0.538-0.406,1.078-0.583,1.615c-0.178,0.541-0.345,1.084-0.502,1.63
		c-0.024,0.045-0.079,0.113-0.159,0.192c-0.074,0.081-0.164,0.146-0.257,0.189c-0.092,0.042-0.183,0.056-0.275,0.03
		c-0.094-0.025-0.161-0.117-0.211-0.281v0.005h0.007V41.21z"/>
	<path fill="#1ABAFF" d="M139.6,41.086c0.23-0.742,0.451-1.38,0.665-1.911c0.212-0.533,0.406-0.969,0.59-1.311
		c0.18-0.342,0.337-0.591,0.475-0.75c0.136-0.163,0.245-0.24,0.329-0.24c0.103,0,0.164,0.108,0.182,0.328
		c0.022,0.218-0.017,0.527-0.116,0.926c-0.1,0.399-0.262,0.882-0.484,1.443c-0.226,0.564-0.534,1.188-0.922,1.869
		c-0.119,0.048-0.25,0.057-0.395,0.028c-0.147-0.024-0.252-0.108-0.313-0.244L139.6,41.086z M141.697,35.438
		c-0.007-0.023-0.012-0.062-0.017-0.118c-0.003-0.06,0-0.121,0.005-0.184c0.007-0.066,0.017-0.127,0.025-0.184
		c0.009-0.061,0.022-0.102,0.034-0.127c0.095-0.033,0.175-0.059,0.235-0.073c0.062-0.015,0.114-0.022,0.161-0.022
		c0.2,0,0.338,0.055,0.423,0.164c0.081,0.11,0.123,0.24,0.123,0.39c0,0.157-0.046,0.303-0.137,0.441
		c-0.091,0.132-0.207,0.203-0.343,0.203c-0.095,0-0.185-0.034-0.271-0.104c-0.086-0.068-0.168-0.189-0.24-0.37V35.438z"/>
	<path fill="#1ABAFF" d="M147.431,41.159c-0.025-0.205-0.017-0.404,0.019-0.598c0.033-0.195,0.086-0.39,0.147-0.583
		c0.066-0.193,0.146-0.384,0.238-0.574c0.09-0.188,0.185-0.375,0.278-0.559c0.155-0.307,0.295-0.604,0.42-0.889
		c0.126-0.285,0.184-0.566,0.184-0.839c0-0.095-0.012-0.189-0.029-0.284c-0.19-0.026-0.419,0.028-0.679,0.169
		c-0.259,0.143-0.533,0.327-0.826,0.564c-0.295,0.234-0.595,0.499-0.903,0.79c-0.307,0.295-0.604,0.584-0.89,0.872
		c-0.292,0.292-0.573,0.564-0.838,0.813c-0.267,0.249-0.506,0.443-0.719,0.589c-0.211,0.141-0.391,0.211-0.54,0.203
		s-0.254-0.119-0.316-0.337c0-0.006,0.053-0.117,0.157-0.329c0.106-0.211,0.241-0.473,0.404-0.784
		c0.166-0.309,0.343-0.65,0.538-1.019c0.192-0.37,0.379-0.711,0.551-1.03c0.175-0.317,0.329-0.583,0.461-0.801
		c0.133-0.22,0.216-0.339,0.25-0.359c0.163,0.116,0.28,0.228,0.342,0.337c0.066,0.109,0.098,0.22,0.098,0.329
		c0,0.097-0.015,0.19-0.046,0.286c-0.028,0.095-0.063,0.186-0.097,0.277c-0.013,0.039-0.026,0.079-0.041,0.124
		c-0.014,0.041-0.024,0.081-0.04,0.124c0.22-0.144,0.479-0.315,0.78-0.508c0.3-0.193,0.608-0.379,0.926-0.552
		c0.32-0.176,0.627-0.322,0.929-0.439c0.3-0.12,0.561-0.179,0.785-0.179c0.22,0,0.395,0.059,0.528,0.176
		c0.133,0.116,0.2,0.318,0.2,0.603c0,0.165-0.031,0.369-0.098,0.616c-0.064,0.245-0.169,0.537-0.312,0.88l0.01-0.021
		c-0.014,0.025-0.038,0.08-0.072,0.159s-0.075,0.171-0.119,0.276c-0.045,0.107-0.095,0.225-0.154,0.35
		c-0.059,0.127-0.115,0.25-0.167,0.374c-0.098,0.219-0.192,0.43-0.282,0.634c-0.093,0.206-0.147,0.336-0.17,0.391
		c-0.007,0.012-0.012,0.033-0.012,0.059c-0.007,0.022-0.01,0.043-0.01,0.068c0,0.024-0.004,0.049-0.012,0.074
		c-0.014,0.13-0.038,0.274-0.076,0.427c-0.037,0.154-0.102,0.279-0.197,0.375c-0.055,0.057-0.116,0.079-0.179,0.076
		c-0.065-0.006-0.125-0.023-0.177-0.058c-0.053-0.033-0.105-0.071-0.147-0.112c-0.046-0.042-0.073-0.069-0.076-0.08L147.431,41.159z
		"/>
	<path fill="#1ABAFF" d="M148.545,44.833c-0.24-0.079-0.439-0.199-0.599-0.354c-0.162-0.152-0.288-0.321-0.385-0.505
		c-0.093-0.184-0.164-0.378-0.209-0.574c-0.046-0.197-0.067-0.385-0.067-0.564c0-0.334,0.076-0.588,0.227-0.763
		c0.151-0.174,0.337-0.206,0.562-0.096c0,0.401,0.026,0.743,0.076,1.023c0.053,0.279,0.126,0.509,0.221,0.685
		c0.096,0.176,0.207,0.307,0.338,0.388c0.128,0.083,0.273,0.126,0.43,0.126c0.245,0,0.514-0.074,0.799-0.217
		c0.285-0.144,0.57-0.336,0.855-0.579c0.282-0.243,0.556-0.523,0.816-0.838c0.262-0.319,0.497-0.647,0.696-0.994
		c0.202-0.343,0.361-0.691,0.482-1.042c0.119-0.351,0.177-0.685,0.177-0.997c0-0.04,0-0.078,0-0.118c0-0.038-0.002-0.074-0.01-0.107
		c-0.507,0.347-0.922,0.594-1.249,0.735c-0.327,0.143-0.595,0.215-0.808,0.215c-0.239,0-0.414-0.066-0.522-0.199
		c-0.111-0.132-0.165-0.312-0.165-0.536c0-0.205,0.05-0.45,0.149-0.735c0.097-0.287,0.229-0.583,0.396-0.887
		c0.169-0.305,0.361-0.603,0.575-0.899c0.215-0.297,0.438-0.563,0.676-0.799c0.234-0.233,0.474-0.425,0.706-0.568
		c0.236-0.142,0.451-0.216,0.649-0.216c0.125,0,0.242,0.026,0.357,0.081c0.119,0.055,0.224,0.139,0.318,0.254
		c0.146,0.193,0.247,0.428,0.314,0.704c0.064,0.276,0.095,0.583,0.095,0.914c0,0.474-0.06,0.988-0.183,1.547
		c-0.122,0.56-0.294,1.122-0.518,1.684c-0.222,0.563-0.484,1.109-0.791,1.638c-0.307,0.531-0.646,1-1.017,1.408
		c-0.373,0.41-0.774,0.736-1.2,0.982c-0.426,0.247-0.867,0.371-1.326,0.371c-0.149,0-0.297-0.015-0.443-0.037
		C148.823,44.936,148.683,44.896,148.545,44.833z M151.228,38.774c-0.01,0.017-0.012,0.045-0.012,0.093c0,0.047,0,0.1,0,0.153
		c0,0.075-0.005,0.122-0.011,0.137c-0.008,0.018-0.005,0.035,0.011,0.056c0.156,0.017,0.318-0.024,0.479-0.117
		c0.166-0.091,0.323-0.216,0.478-0.37c0.154-0.151,0.297-0.329,0.43-0.52c0.134-0.195,0.252-0.392,0.354-0.584
		c0.1-0.194,0.181-0.379,0.237-0.554c0.06-0.174,0.088-0.315,0.088-0.424c0-0.017,0.008-0.024,0.021-0.032
		c-0.048,0.008-0.114,0.037-0.194,0.088c-0.08,0.053-0.187,0.136-0.318,0.251h0.012c-0.094,0.087-0.224,0.207-0.379,0.354
		c-0.157,0.146-0.313,0.305-0.471,0.477c-0.157,0.17-0.304,0.343-0.441,0.517C151.377,38.472,151.282,38.632,151.228,38.774z"/>
	<path fill="#1ABAFF" d="M155.157,41.304c-0.116-0.075-0.171-0.161-0.164-0.257c0.007-0.094,0.055-0.194,0.147-0.296
		c0.093-0.103,0.221-0.206,0.38-0.312c0.157-0.106,0.336-0.214,0.532-0.32c0.195-0.106,0.396-0.209,0.608-0.307
		c0.211-0.1,0.413-0.192,0.605-0.28h-0.014c0.214-0.102,0.395-0.189,0.549-0.267c0.151-0.075,0.257-0.13,0.313-0.165
		c0.236-0.225,0.358-0.38,0.358-0.469c0-0.062-0.045-0.118-0.133-0.166c-0.09-0.048-0.207-0.091-0.35-0.126
		c-0.143-0.037-0.304-0.072-0.479-0.104c-0.179-0.027-0.354-0.06-0.535-0.084c-0.204-0.025-0.403-0.061-0.599-0.098
		c-0.194-0.037-0.368-0.082-0.522-0.138c-0.152-0.055-0.275-0.123-0.368-0.2c-0.09-0.076-0.138-0.178-0.138-0.303
		c0-0.1,0.05-0.216,0.149-0.347c0.098-0.127,0.257-0.27,0.476-0.42l-0.01,0.011c0.109-0.08,0.273-0.196,0.497-0.349
		c0.221-0.149,0.458-0.305,0.715-0.466c0.257-0.159,0.513-0.307,0.768-0.439c0.256-0.132,0.478-0.219,0.66-0.262
		c0.088-0.02,0.181-0.019,0.278,0.005c0.095,0.026,0.178,0.063,0.254,0.114c0.077,0.051,0.138,0.111,0.19,0.178
		c0.052,0.069,0.076,0.137,0.076,0.205c0,0.156-0.086,0.286-0.255,0.39c-0.118,0.068-0.232,0.13-0.349,0.193
		c-0.117,0.062-0.233,0.125-0.348,0.182c-0.335,0.185-0.655,0.361-0.962,0.533c-0.309,0.17-0.582,0.332-0.819,0.488
		c0.539,0.064,0.995,0.138,1.37,0.229c0.376,0.089,0.68,0.189,0.91,0.308c0.233,0.115,0.401,0.24,0.504,0.379
		c0.103,0.136,0.152,0.278,0.152,0.43c0,0.206-0.103,0.416-0.307,0.632c-0.204,0.214-0.463,0.422-0.772,0.619
		c-0.313,0.196-0.653,0.384-1.026,0.558c-0.372,0.176-0.724,0.321-1.053,0.439c-0.33,0.122-0.617,0.204-0.859,0.257
		c-0.24,0.05-0.39,0.055-0.444,0.017L155.157,41.304z"/>
</g>
<path fill="#FFFFFF" d="M28.183,16.919l-2.862,4.26c1.454,0.892,2.429,2.495,2.429,4.327c0,2.799-2.278,5.075-5.076,5.075
	c-2.802,0-5.08-2.276-5.08-5.075c0-0.633,0.122-1.236,0.333-1.795l-0.006-0.001l0.014-0.02c0.008-0.023,0.022-0.044,0.029-0.066
	l8.235-11.809l-4.127-3.018l-7.548,10.566c-0.113,0.149-0.223,0.302-0.326,0.457l-0.902,1.655c-0.534,1.238-0.831,2.599-0.831,4.028
	c0,5.626,4.581,10.206,10.209,10.206c5.626,0,10.206-4.58,10.206-10.206C32.88,21.904,31.005,18.736,28.183,16.919z"/>
<g>
	<path fill="#1D1D1B" d="M69.398,20.314c0,1.665-0.604,2.974-1.809,3.924c-1.205,0.948-2.867,1.424-4.987,1.424
		s-3.856-0.33-5.206-0.988v-2.898c0.855,0.4,1.762,0.718,2.725,0.947c0.961,0.229,1.857,0.346,2.686,0.346
		c1.213,0,2.108-0.229,2.686-0.691c0.578-0.463,0.866-1.081,0.866-1.857c0-0.701-0.265-1.295-0.795-1.783
		c-0.529-0.486-1.624-1.064-3.28-1.731c-1.711-0.691-2.915-1.483-3.617-2.372c-0.701-0.887-1.052-1.955-1.052-3.206
		c0-1.563,0.555-2.794,1.666-3.692c1.113-0.896,2.604-1.345,4.476-1.345c1.795,0,3.581,0.394,5.359,1.181l-0.975,2.5
		c-1.667-0.7-3.154-1.049-4.461-1.049c-0.992,0-1.745,0.217-2.255,0.645c-0.514,0.432-0.771,1.002-0.771,1.713
		c0,0.485,0.102,0.903,0.308,1.25c0.206,0.345,0.543,0.672,1.013,0.98c0.47,0.309,1.316,0.715,2.538,1.218
		c1.376,0.574,2.384,1.107,3.026,1.603c0.64,0.496,1.111,1.056,1.411,1.68C69.247,18.731,69.398,19.467,69.398,20.314z"/>
	<path fill="#1D1D1B" d="M72.526,7.468c0-0.539,0.147-0.953,0.441-1.243c0.294-0.29,0.715-0.435,1.264-0.435
		c0.53,0,0.941,0.145,1.237,0.435c0.294,0.291,0.441,0.704,0.441,1.243c0,0.513-0.147,0.916-0.441,1.21
		c-0.296,0.295-0.707,0.442-1.237,0.442c-0.548,0-0.968-0.147-1.264-0.442C72.674,8.382,72.526,7.979,72.526,7.468z M75.72,25.405
		h-3.015V11.223h3.015V25.405z"/>
	<path fill="#1D1D1B" d="M83.181,18.159l-4.758-6.935h3.438l3.232,4.961l3.255-4.961h3.412l-4.771,6.935l5.016,7.246h-3.411
		l-3.5-5.31l-3.489,5.31h-3.41L83.181,18.159z"/>
	<path fill="#1D1D1B" d="M105.617,20.314c0,1.665-0.602,2.974-1.809,3.924c-1.204,0.948-2.865,1.424-4.984,1.424
		c-2.122,0-3.856-0.33-5.208-0.988v-2.898c0.855,0.4,1.763,0.718,2.725,0.947c0.963,0.229,1.856,0.346,2.686,0.346
		c1.214,0,2.107-0.229,2.687-0.691c0.577-0.463,0.867-1.081,0.867-1.857c0-0.701-0.266-1.295-0.796-1.783
		c-0.529-0.487-1.625-1.064-3.283-1.731c-1.706-0.691-2.913-1.483-3.614-2.372c-0.7-0.887-1.052-1.955-1.052-3.206
		c0-1.563,0.556-2.794,1.668-3.692c1.111-0.896,2.604-1.345,4.474-1.345c1.797,0,3.58,0.394,5.357,1.181l-0.974,2.5
		c-1.666-0.7-3.153-1.049-4.46-1.049c-0.993,0-1.744,0.217-2.255,0.645c-0.516,0.432-0.773,1.002-0.773,1.713
		c0,0.485,0.105,0.903,0.311,1.25c0.204,0.345,0.54,0.672,1.012,0.98c0.471,0.309,1.316,0.715,2.54,1.218
		c1.376,0.574,2.383,1.107,3.023,1.603c0.641,0.496,1.111,1.056,1.411,1.68C105.467,18.731,105.617,19.467,105.617,20.314z"/>
	<path fill="#1D1D1B" d="M114.208,23.225c0.734,0,1.469-0.117,2.205-0.347v2.269c-0.333,0.146-0.763,0.269-1.29,0.366
		c-0.526,0.097-1.07,0.146-1.636,0.146c-2.857,0-4.283-1.502-4.283-4.512v-7.642h-1.937v-1.334l2.077-1.103l1.028-3h1.858v3.154
		h4.036v2.282h-4.036v7.59c0,0.728,0.181,1.263,0.544,1.608C113.142,23.052,113.616,23.225,114.208,23.225z"/>
	<path fill="#1D1D1B" d="M125.439,25.659c-2.205,0-3.93-0.644-5.173-1.929c-1.245-1.287-1.867-3.058-1.867-5.314
		c0-2.316,0.577-4.135,1.731-5.46c1.152-1.325,2.74-1.988,4.757-1.988c1.872,0,3.351,0.569,4.434,1.704
		c1.09,1.138,1.632,2.702,1.632,4.693v1.627h-9.451c0.043,1.376,0.414,2.433,1.114,3.172c0.701,0.739,1.689,1.108,2.963,1.108
		c0.838,0,1.618-0.078,2.342-0.236c0.722-0.158,1.495-0.422,2.324-0.786v2.447c-0.733,0.352-1.479,0.599-2.229,0.745
		C127.264,25.59,126.403,25.659,125.439,25.659z M124.888,13.249c-0.957,0-1.725,0.303-2.3,0.91
		c-0.581,0.607-0.924,1.494-1.037,2.655h6.437c-0.018-1.17-0.3-2.056-0.845-2.661C126.596,13.548,125.846,13.249,124.888,13.249z"/>
	<path fill="#1D1D1B" d="M141.566,25.659c-1.793,0-3.188-0.646-4.179-1.936h-0.181c0.121,1.194,0.181,1.923,0.181,2.18v5.807h-3.017
		V11.222h2.438c0.07,0.266,0.211,0.896,0.425,1.899h0.154c0.938-1.438,2.35-2.154,4.231-2.154c1.768,0,3.146,0.641,4.134,1.922
		c0.986,1.284,1.48,3.081,1.48,5.399c0,2.317-0.501,4.126-1.507,5.424C144.722,25.011,143.337,25.659,141.566,25.659z
		 M140.838,13.43c-1.198,0-2.072,0.35-2.623,1.05c-0.552,0.7-0.827,1.821-0.827,3.361v0.448c0,1.728,0.273,2.976,0.819,3.752
		c0.547,0.772,1.442,1.159,2.681,1.159c1.039,0,1.846-0.43,2.407-1.285c0.567-0.853,0.846-2.071,0.846-3.652
		c0-1.591-0.278-2.793-0.837-3.61C142.745,13.837,141.921,13.43,140.838,13.43z"/>
	<path fill="#1D1D1B" d="M160.261,21.363c0,1.387-0.506,2.449-1.514,3.187c-1.007,0.74-2.454,1.109-4.334,1.109
		c-1.889,0-3.404-0.286-4.55-0.859v-2.604c1.668,0.771,3.219,1.154,4.654,1.154c1.854,0,2.78-0.562,2.78-1.681
		c0-0.359-0.1-0.658-0.307-0.896c-0.204-0.238-0.542-0.486-1.012-0.743c-0.471-0.257-1.127-0.546-1.963-0.872
		c-1.632-0.634-2.737-1.264-3.314-1.9c-0.577-0.633-0.864-1.45-0.864-2.458c0-1.213,0.486-2.156,1.468-2.827
		c0.977-0.672,2.31-1.006,3.991-1.006c1.668,0,3.246,0.337,4.733,1.012l-0.975,2.27c-1.53-0.633-2.817-0.949-3.86-0.949
		c-1.59,0-2.383,0.454-2.383,1.359c0,0.444,0.206,0.821,0.622,1.129c0.413,0.308,1.316,0.732,2.711,1.269
		c1.171,0.454,2.021,0.868,2.553,1.245c0.531,0.376,0.922,0.809,1.18,1.298C160.132,20.092,160.261,20.681,160.261,21.363z"/>
</g>
<g>
	<path fill="#1D1D1B" d="M161.237,10.769c0-0.265,0.063-0.513,0.197-0.744c0.133-0.231,0.315-0.416,0.546-0.549
		c0.23-0.132,0.482-0.2,0.751-0.2c0.264,0,0.511,0.067,0.742,0.198c0.229,0.13,0.415,0.315,0.549,0.548
		c0.135,0.23,0.201,0.48,0.201,0.747c0,0.262-0.064,0.506-0.192,0.735c-0.129,0.229-0.309,0.413-0.539,0.551
		c-0.232,0.136-0.484,0.207-0.761,0.207c-0.275,0-0.529-0.071-0.76-0.206c-0.232-0.136-0.414-0.321-0.541-0.549
		C161.301,11.277,161.237,11.032,161.237,10.769z M161.481,10.769c0,0.228,0.055,0.434,0.167,0.629
		c0.111,0.191,0.264,0.343,0.458,0.457c0.192,0.11,0.401,0.167,0.625,0.167c0.227,0,0.433-0.058,0.631-0.17
		c0.192-0.115,0.345-0.267,0.454-0.457c0.111-0.19,0.167-0.399,0.167-0.625c0-0.224-0.056-0.431-0.167-0.625
		c-0.115-0.194-0.268-0.346-0.461-0.458c-0.192-0.112-0.401-0.167-0.624-0.167c-0.224,0-0.43,0.055-0.622,0.164
		c-0.19,0.112-0.343,0.263-0.459,0.456C161.536,10.333,161.481,10.543,161.481,10.769z M163.338,10.415
		c0,0.229-0.105,0.381-0.305,0.464l0.471,0.788h-0.421l-0.38-0.686h-0.179v0.686h-0.375V9.874h0.521c0.23,0,0.399,0.044,0.506,0.132
		C163.283,10.099,163.338,10.235,163.338,10.415z M162.524,10.692h0.136c0.098,0,0.174-0.024,0.226-0.071
		c0.05-0.045,0.075-0.113,0.075-0.198c0-0.094-0.025-0.163-0.072-0.201c-0.05-0.036-0.127-0.056-0.229-0.056h-0.13v0.525H162.524z"
		/>
</g>
</svg>
